<mxfile modified="2022-02-18T01:34:07.657Z" host="app.diagrams.net" agent="5.0 (Windows NT 10.0; WOW64) AppleWebKit/537.36 (KHTML, like Gecko) Chrome/79.0.3945.79 Safari/537.36" etag="EtzSQZpZyDtkKhFdFDfW" version="16.5.6" type="github">
  <diagram id="tEm1or9J5rmpAkqg5-Qc" name="Page-1">
    <mxGraphModel dx="1382" dy="772" grid="0" gridSize="10" guides="1" tooltips="1" connect="1" arrows="1" fold="1" page="1" pageScale="1" pageWidth="827" pageHeight="1169" math="0" shadow="0">
      <root>
        <mxCell id="0" />
        <mxCell id="1" parent="0" />
        <mxCell id="A2ALVThhQ3q4sL_E1vpr-39" value="" style="rounded=0;whiteSpace=wrap;html=1;fontSize=15;fillColor=#f5f5f5;strokeColor=#666666;shadow=1;glass=1;comic=1;fontColor=#333333;" parent="1" vertex="1">
          <mxGeometry x="16" y="136" width="705" height="486" as="geometry" />
        </mxCell>
        <mxCell id="A2ALVThhQ3q4sL_E1vpr-2" value="" style="rounded=1;whiteSpace=wrap;html=1;fillColor=#ffe6cc;strokeColor=#d79b00;comic=1;shadow=1;glass=1;" parent="1" vertex="1">
          <mxGeometry x="30" y="146" width="674" height="80" as="geometry" />
        </mxCell>
        <mxCell id="A2ALVThhQ3q4sL_E1vpr-3" value="WEB&lt;br style=&quot;font-size: 13px;&quot;&gt;vue + element-ui&lt;br style=&quot;font-size: 13px;&quot;&gt;" style="rounded=1;whiteSpace=wrap;html=1;shadow=1;glass=1;comic=1;fontSize=13;fontStyle=1" parent="1" vertex="1">
          <mxGeometry x="140" y="156" width="120" height="60" as="geometry" />
        </mxCell>
        <mxCell id="A2ALVThhQ3q4sL_E1vpr-5" value="微信公众号" style="rounded=1;whiteSpace=wrap;html=1;comic=1;shadow=1;glass=1;fontSize=13;fontStyle=1" parent="1" vertex="1">
          <mxGeometry x="291" y="156" width="120" height="60" as="geometry" />
        </mxCell>
        <mxCell id="A2ALVThhQ3q4sL_E1vpr-7" value="" style="rounded=1;whiteSpace=wrap;html=1;fillColor=#fff2cc;strokeColor=#d6b656;shadow=1;glass=1;comic=1;" parent="1" vertex="1">
          <mxGeometry x="26" y="236" width="677" height="80" as="geometry" />
        </mxCell>
        <mxCell id="A2ALVThhQ3q4sL_E1vpr-8" value="HTTP/HTTPS&lt;br style=&quot;font-size: 13px;&quot;&gt;" style="rounded=1;whiteSpace=wrap;html=1;comic=1;shadow=1;glass=1;fontSize=13;fontStyle=1" parent="1" vertex="1">
          <mxGeometry x="290" y="241" width="120" height="60" as="geometry" />
        </mxCell>
        <mxCell id="A2ALVThhQ3q4sL_E1vpr-12" value="展现层" style="text;html=1;strokeColor=none;fillColor=none;align=center;verticalAlign=middle;whiteSpace=wrap;rounded=0;fontSize=18;fontStyle=1" parent="1" vertex="1">
          <mxGeometry x="50" y="176" width="56" height="20" as="geometry" />
        </mxCell>
        <mxCell id="A2ALVThhQ3q4sL_E1vpr-13" value="通讯层" style="text;html=1;strokeColor=none;fillColor=none;align=center;verticalAlign=middle;whiteSpace=wrap;rounded=0;fontSize=18;fontStyle=1" parent="1" vertex="1">
          <mxGeometry x="46" y="256" width="60" height="20" as="geometry" />
        </mxCell>
        <mxCell id="A2ALVThhQ3q4sL_E1vpr-15" value="" style="rounded=1;whiteSpace=wrap;html=1;fillColor=#f8cecc;strokeColor=#b85450;shadow=1;comic=1;glass=1;" parent="1" vertex="1">
          <mxGeometry x="30" y="326" width="674" height="185" as="geometry" />
        </mxCell>
        <mxCell id="A2ALVThhQ3q4sL_E1vpr-16" value="SPRINGGATEWAY&lt;br style=&quot;font-size: 13px;&quot;&gt;服务网关" style="rounded=1;whiteSpace=wrap;html=1;comic=1;shadow=1;glass=1;fontSize=13;fontStyle=1" parent="1" vertex="1">
          <mxGeometry x="818" y="357" width="320" height="60" as="geometry" />
        </mxCell>
        <mxCell id="A2ALVThhQ3q4sL_E1vpr-20" value="服务层" style="text;html=1;strokeColor=none;fillColor=none;align=center;verticalAlign=middle;whiteSpace=wrap;rounded=0;fontSize=18;fontStyle=1" parent="1" vertex="1">
          <mxGeometry x="50" y="346" width="57" height="20" as="geometry" />
        </mxCell>
        <mxCell id="A2ALVThhQ3q4sL_E1vpr-30" value="" style="rounded=1;whiteSpace=wrap;html=1;fillColor=#e1d5e7;strokeColor=#9673a6;shadow=1;glass=1;comic=1;" parent="1" vertex="1">
          <mxGeometry x="26" y="525" width="676" height="80" as="geometry" />
        </mxCell>
        <mxCell id="A2ALVThhQ3q4sL_E1vpr-32" value="MONGODB" style="rounded=1;whiteSpace=wrap;html=1;shadow=1;comic=1;glass=1;fontSize=13;fontStyle=1" parent="1" vertex="1">
          <mxGeometry x="178" y="532" width="120" height="60" as="geometry" />
        </mxCell>
        <mxCell id="A2ALVThhQ3q4sL_E1vpr-35" value="数据层" style="text;html=1;strokeColor=none;fillColor=none;align=center;verticalAlign=middle;whiteSpace=wrap;rounded=0;fontSize=18;fontStyle=1" parent="1" vertex="1">
          <mxGeometry x="46" y="555" width="60" height="20" as="geometry" />
        </mxCell>
        <mxCell id="hyMtcfNfDxj9DRvsbc5Z-8" value="NGINX&lt;br style=&quot;font-size: 13px;&quot;&gt;" style="rounded=1;whiteSpace=wrap;html=1;comic=1;shadow=1;glass=1;fontSize=13;fontStyle=1" parent="1" vertex="1">
          <mxGeometry x="136" y="241" width="120" height="60" as="geometry" />
        </mxCell>
        <mxCell id="A2ALVThhQ3q4sL_E1vpr-22" value="SAAS服务" style="rounded=1;whiteSpace=wrap;html=1;comic=1;shadow=1;glass=1;fontSize=13;fontStyle=1" parent="1" vertex="1">
          <mxGeometry x="225" y="385" width="94" height="57" as="geometry" />
        </mxCell>
        <mxCell id="yhH2DUNo-yTEcBtsteYH-17" value="开发架构&#xa;springcloud&#xa;运维架构&#xa;docker swarm&#xa;大数据架构&#xa;hadoop+hbase+hive+spark&#xa;监控体系&#xa;grafana+prometheus" style="text;whiteSpace=wrap;html=1;fontSize=13;" parent="1" vertex="1">
          <mxGeometry x="927" y="575" width="177" height="142" as="geometry" />
        </mxCell>
        <mxCell id="RZ8fS1RHTA0r417xA3Hv-1" value="REDIS" style="rounded=1;whiteSpace=wrap;html=1;shadow=1;comic=1;glass=1;fontSize=13;fontStyle=1" vertex="1" parent="1">
          <mxGeometry x="334" y="535" width="120" height="60" as="geometry" />
        </mxCell>
      </root>
    </mxGraphModel>
  </diagram>
</mxfile>
